<svg xmlns="http://www.w3.org/2000/svg" xmlns:xlink="http://www.w3.org/1999/xlink" viewBox="0 0 181 181"><defs><style>.cls-1{fill:#2b21b5;}.cls-2{fill:url(#linear-gradient);}.cls-3{fill:#17cfdd;}.cls-4{fill:#eeff0b;}.cls-5{fill:#e51c1c;}.cls-6{fill:#fff;stroke:#fff;stroke-miterlimit:10;}.cls-7{font-size:29px;fill:#ffed08;font-family:Ubuntu-Bold, Ubuntu;font-weight:700;letter-spacing:-0.06em;}.cls-8{letter-spacing:-0.09em;}.cls-9{letter-spacing:-0.06em;}</style><linearGradient id="linear-gradient" x1="23.77" y1="25.1" x2="138.56" y2="139.89" gradientUnits="userSpaceOnUse"><stop offset="0" stop-color="#ff1515"/><stop offset="0.16" stop-color="#fa1915"/><stop offset="0.35" stop-color="#ed2416"/><stop offset="0.51" stop-color="#db3216"/><stop offset="0.58" stop-color="#d62c18"/><stop offset="0.79" stop-color="#cc201b"/><stop offset="1" stop-color="#c91c1c"/></linearGradient></defs><title>discount</title><g id="Layer_3" data-name="Layer 3"><circle class="cls-1" cx="31.5" cy="149.02" r="31.5"/><circle class="cls-2" cx="81.17" cy="82.49" r="81.17"/><circle class="cls-3" cx="156.5" cy="25.49" r="21.5"/></g><g id="Layer_2" data-name="Layer 2"><path class="cls-4" d="M143.87,98.81h0a6.59,6.59,0,0,1,11.11,3h0a6.59,6.59,0,0,0,8.18,4.72h0a6.59,6.59,0,0,1,8.13,8.13h0a6.59,6.59,0,0,0,4.72,8.18h0a6.59,6.59,0,0,1,3,11.11h0a6.59,6.59,0,0,0,0,9.45h0a6.59,6.59,0,0,1-3,11.11h0a6.59,6.59,0,0,0-4.72,8.18h0a6.59,6.59,0,0,1-8.13,8.13h0a6.59,6.59,0,0,0-8.18,4.72h0a6.59,6.59,0,0,1-11.11,3h0a6.59,6.59,0,0,0-9.45,0h0a6.59,6.59,0,0,1-11.11-3h0a6.59,6.59,0,0,0-8.18-4.72h0a6.59,6.59,0,0,1-8.13-8.13h0a6.59,6.59,0,0,0-4.72-8.18h0a6.59,6.59,0,0,1-3-11.11h0a6.59,6.59,0,0,0,0-9.45h0a6.59,6.59,0,0,1,3-11.11h0a6.59,6.59,0,0,0,4.72-8.18h0a6.59,6.59,0,0,1,8.13-8.13h0a6.59,6.59,0,0,0,8.18-4.72h0a6.59,6.59,0,0,1,11.11-3h0A6.59,6.59,0,0,0,143.87,98.81Z"/><path class="cls-5" d="M124.59,129.22a15.11,15.11,0,0,1-.46,3.76,22.32,22.32,0,0,1-1.2,3.48,29.41,29.41,0,0,1-1.67,3.22q-.92,1.55-1.82,2.94c-.31.48-.64,1-1,1.63s-.7,1.21-1,1.83-.62,1.2-.88,1.73a5.42,5.42,0,0,0-.48,1.32h9.19v6.45H111a13.82,13.82,0,0,1-.06-1.44v-1.24a20.1,20.1,0,0,1,.48-4.54,22.4,22.4,0,0,1,1.25-3.84,24.86,24.86,0,0,1,1.74-3.33l1.93-3.09,1.39-2.24q.65-1.06,1.14-2.06a11.62,11.62,0,0,0,.77-2,7.63,7.63,0,0,0,.28-2,5.09,5.09,0,0,0-.77-3.2,2.39,2.39,0,0,0-1.91-.93,3,3,0,0,0-1.56.44,7.24,7.24,0,0,0-1.33,1,9.87,9.87,0,0,0-1,1.19q-.43.59-.65,1l-2.28-5.36a13.38,13.38,0,0,1,3.16-3.48A6.3,6.3,0,0,1,117.4,119a6.81,6.81,0,0,1,3.24.72,6.11,6.11,0,0,1,2.24,2,9.34,9.34,0,0,1,1.3,3.2A19.84,19.84,0,0,1,124.59,129.22Z"/><path class="cls-5" d="M137.91,145.05a8.13,8.13,0,0,0-.4-2.66,4.12,4.12,0,0,0-1.39-1.93,7,7,0,0,0-2.65-1.19,17.84,17.84,0,0,0-4.19-.41q.34-4.8.56-9.75t.34-9.29h11.56v6.45H134q-.06,1.86-.14,3.59t-.17,3a8.93,8.93,0,0,1,6.64,3.54q2.14,3,2.14,8.38a19.07,19.07,0,0,1-.52,4.59A11.38,11.38,0,0,1,140.4,153a7.31,7.31,0,0,1-6.35,3.3,9.06,9.06,0,0,1-1.74-.18,14.76,14.76,0,0,1-1.76-.46,15.33,15.33,0,0,1-1.53-.59,4.7,4.7,0,0,1-1-.62l.83-6.35a10.36,10.36,0,0,0,2,1.11,7.64,7.64,0,0,0,3,.54,3.45,3.45,0,0,0,3.08-1.42A5.81,5.81,0,0,0,137.91,145.05Z"/><path class="cls-5" d="M155.26,125.69a8.57,8.57,0,0,1-1.21,5,3.95,3.95,0,0,1-6.52,0,10.76,10.76,0,0,1,0-9.93,4,4,0,0,1,6.52,0A8.57,8.57,0,0,1,155.26,125.69Zm-2.86,0a5.37,5.37,0,0,0-.46-2.55,1.26,1.26,0,0,0-2.34,0,5.5,5.5,0,0,0-.44,2.55,5.62,5.62,0,0,0,.44,2.57,1.25,1.25,0,0,0,2.34,0A5.48,5.48,0,0,0,152.4,125.69Zm7.79-6.14h3.52l-9.89,23.9h-3.51Zm7.56,17.76a8.56,8.56,0,0,1-1.21,5,3.95,3.95,0,0,1-6.52,0,10.75,10.75,0,0,1,0-9.93,3.95,3.95,0,0,1,6.52,0A8.57,8.57,0,0,1,167.76,137.31Zm-2.86,0a5.37,5.37,0,0,0-.46-2.55,1.26,1.26,0,0,0-2.34,0,5.51,5.51,0,0,0-.44,2.55,5.62,5.62,0,0,0,.44,2.57,1.25,1.25,0,0,0,2.34,0A5.48,5.48,0,0,0,164.9,137.31Z"/><path class="cls-5" d="M154.27,152.44A9.32,9.32,0,0,1,154,155a5.68,5.68,0,0,1-.84,1.82,3.51,3.51,0,0,1-1.26,1.1,3.44,3.44,0,0,1-1.58.37,3.36,3.36,0,0,1-1.55-.37,3.62,3.62,0,0,1-1.27-1.1,5.63,5.63,0,0,1-.85-1.82,9.16,9.16,0,0,1-.31-2.52,8.84,8.84,0,0,1,.32-2.52,5.84,5.84,0,0,1,.87-1.83,3.67,3.67,0,0,1,1.27-1.11,3.29,3.29,0,0,1,1.52-.37,3.37,3.37,0,0,1,1.55.37,3.61,3.61,0,0,1,1.27,1.11,5.75,5.75,0,0,1,.85,1.83A9.16,9.16,0,0,1,154.27,152.44Zm-6.11,0a6.92,6.92,0,0,0,.14,1.48,4,4,0,0,0,.42,1.13,2.1,2.1,0,0,0,.66.73,1.7,1.7,0,0,0,1.79,0,2.09,2.09,0,0,0,.67-.73,4,4,0,0,0,.42-1.13,6.92,6.92,0,0,0,.14-1.48,7.05,7.05,0,0,0-.14-1.49,4,4,0,0,0-.42-1.14,2.08,2.08,0,0,0-.67-.73,1.61,1.61,0,0,0-.89-.26,1.57,1.57,0,0,0-.9.27,2.16,2.16,0,0,0-.66.74,4,4,0,0,0-.42,1.14A7,7,0,0,0,148.17,152.44Z"/><path class="cls-5" d="M155.77,158V146.88h5.36V149h-3.55v2.33h3.16v2.11h-3.16V158Z"/><path class="cls-5" d="M162.4,158V146.88h5.36V149H164.2v2.33h3.16v2.11H164.2V158Z"/></g><g id="Layer_4" data-name="Layer 4"><path class="cls-6" d="M35.71,85.1a5.88,5.88,0,0,0,1.3-.63,2.63,2.63,0,0,0,.72-.68,1.33,1.33,0,0,0,.24-.72,2.13,2.13,0,0,0-.14-.76,1.77,1.77,0,0,0-1.3-1.11A12,12,0,0,0,33.37,81c-.63,0-1.28,0-1.93-.07a6.57,6.57,0,0,1-1.86-.42,4.91,4.91,0,0,1-1.6-1,4.7,4.7,0,0,1-1.15-1.86,5.32,5.32,0,0,1-.33-2.3,4.87,4.87,0,0,1,.67-2.08,6.13,6.13,0,0,1,1.61-1.75,9.43,9.43,0,0,1,2.49-1.31,11.16,11.16,0,0,1,5.51-.66V73a11.33,11.33,0,0,0-1.84-.07,7.4,7.4,0,0,0-2.22.49,4.13,4.13,0,0,0-1.85,1.11,1.38,1.38,0,0,0-.18,1.4,1.44,1.44,0,0,0,.51.71,2.29,2.29,0,0,0,.84.35,5.77,5.77,0,0,0,1.11.13h1.33q1.52,0,2.68.13a6.62,6.62,0,0,1,2.06.53,4.34,4.34,0,0,1,1.53,1.16,6.43,6.43,0,0,1,1.09,2,4.76,4.76,0,0,1-.33,4.34,8.65,8.65,0,0,1-4.59,3.17,15.1,15.1,0,0,1-2.1.61,14.08,14.08,0,0,1-1.74.26,9.79,9.79,0,0,1-1.37,0,9.45,9.45,0,0,1-1-.11l0-3.47a10,10,0,0,0,5.05-.6Z"/><path class="cls-6" d="M45.34,65.28a11.42,11.42,0,0,1,6.38-.79,5.2,5.2,0,0,1,3.66,3.67,5.27,5.27,0,0,1-.45,5.22,11.44,11.44,0,0,1-5.44,3.54l-1.21.44,2.09,5.74L46.51,84.5,40.35,67.6a23,23,0,0,1,2.55-1.32Q44.28,65.67,45.34,65.28Zm1.45,3.2L46,68.8l-.69.31,1.8,5,1.21-.44A7,7,0,0,0,51.11,72a2.23,2.23,0,0,0,.28-2.4,2.59,2.59,0,0,0-.69-1.09,2.11,2.11,0,0,0-1-.48,3.56,3.56,0,0,0-1.32,0A10.33,10.33,0,0,0,46.78,68.48Z"/><path class="cls-6" d="M62.45,78.7,56.2,61.55l11.58-4.22L69,60.57l-7.72,2.81,1.23,3.37,6.86-2.5,1.15,3.17-6.86,2.5,1.5,4.13,8.29-3,1.18,3.24Z"/><path class="cls-6" d="M85.4,70.74q-4.18,1.52-7.22,0t-4.6-5.81a10.82,10.82,0,0,1-.71-4,8.71,8.71,0,0,1,.8-3.49,8.13,8.13,0,0,1,2.14-2.76,10.61,10.61,0,0,1,3.27-1.86,11.93,11.93,0,0,1,2-.56,13.76,13.76,0,0,1,1.7-.2,8.14,8.14,0,0,1,1.27,0q.53.06.77.11l0,3.52a10,10,0,0,0-2.11,0,9.35,9.35,0,0,0-2.5.57,5.6,5.6,0,0,0-1.64.93,4.21,4.21,0,0,0-1.16,1.5A5.05,5.05,0,0,0,77,60.72a7.57,7.57,0,0,0,.52,2.67,9.57,9.57,0,0,0,1.07,2.12A5,5,0,0,0,80.11,67a4.29,4.29,0,0,0,2,.62,5.74,5.74,0,0,0,2.44-.4A11.13,11.13,0,0,0,86,66.55a12.12,12.12,0,0,0,1.1-.67,6.74,6.74,0,0,0,.8-.64l.6-.58,2.19,2.71a9.52,9.52,0,0,1-2,1.73A14.27,14.27,0,0,1,85.4,70.74Z"/><path class="cls-6" d="M87.25,50.25l3.86-1.41L97.35,66,93.49,67.4Z"/><path class="cls-6" d="M112.82,60.37q-.61-.79-1.28-1.61l-1.34-1.64-6.7,2.44q0,1.06,0,2.12t.06,2.05l-4,1.46q0-3.12,0-5.79t.09-5q.07-2.38.2-4.54t.35-4.26l3.66-1.33q1.49,1.47,3,3t3.09,3.35q1.59,1.78,3.32,3.81T117,58.86Zm-9.47-11.58c0,.28,0,.67,0,1.15s0,1.05,0,1.69,0,1.34,0,2.12,0,1.58,0,2.42l4.91-1.79-1.54-1.85q-.74-.88-1.38-1.6l-1.12-1.27Z"/><path class="cls-6" d="M129.41,50.57l1.21,3.32-11.46,4.17-6.24-17.15,3.86-1.41,5,13.84Z"/></g><g id="Layer_5" data-name="Layer 5"><text class="cls-7" transform="translate(26.02 126.42) rotate(-20)">DIS<tspan class="cls-8" x="42.11" y="0">C</tspan><tspan class="cls-9" x="58.41" y="0">OUNT</tspan></text></g></svg>