<svg xmlns="http://www.w3.org/2000/svg" xmlns:xlink="http://www.w3.org/1999/xlink" viewBox="0 0 1366 710"><defs><style>.cls-1{isolation:isolate;}.cls-2{fill:url(#Degradado_sin_nombre_8);}.cls-3{fill:url(#radial-gradient);}.cls-4{fill:#2b195e;}.cls-5{fill:#0d63a3;}.cls-11,.cls-12,.cls-13,.cls-14,.cls-30,.cls-6,.cls-7,.cls-8{fill:none;}.cls-6{stroke:#a6e1ff;stroke-miterlimit:10;stroke-width:11px;}.cls-12,.cls-7{stroke:#64ffd1;}.cls-11,.cls-12,.cls-13,.cls-14,.cls-30,.cls-7,.cls-8{stroke-linecap:round;stroke-linejoin:round;}.cls-7,.cls-8{stroke-width:24px;}.cls-11,.cls-14,.cls-8{stroke:#fff;}.cls-9{fill:url(#Degradado_sin_nombre_10);}.cls-10{fill:#ed0a46;}.cls-11,.cls-12,.cls-30{stroke-width:10px;}.cls-13,.cls-30{stroke:#ffbe0c;}.cls-13,.cls-14{stroke-width:6px;}.cls-15{fill:url(#Degradado_sin_nombre_8-2);}.cls-16{fill:url(#Degradado_sin_nombre_9);}.cls-17{fill:url(#Degradado_sin_nombre_8-3);}.cls-18{fill:url(#Degradado_sin_nombre_5);}.cls-19{fill:url(#Degradado_sin_nombre_3);}.cls-20{fill:url(#Degradado_sin_nombre_4);}.cls-21{opacity:0.25;mix-blend-mode:multiply;}.cls-22,.cls-25{font-size:84.02px;}.cls-22,.cls-26{fill:#3a3a3a;}.cls-22,.cls-25,.cls-26,.cls-28{font-family:Raleway-BlackItalic, Raleway BlackItalic;font-style:italic;}.cls-23{font-size:26.93px;letter-spacing:0.07em;}.cls-24{letter-spacing:0.05em;}.cls-25,.cls-28{fill:#fff;}.cls-26,.cls-28{font-size:75.79px;}.cls-27,.cls-29{font-size:50.17px;letter-spacing:0.05em;}.cls-29{fill:#64ffd1;}.cls-31{fill:#4192a5;}.cls-32{fill:#57adc4;}.cls-33{fill:#fff380;}</style><linearGradient id="Degradado_sin_nombre_8" x1="656" y1="354.77" x2="1366" y2="354.77" gradientUnits="userSpaceOnUse"><stop offset="0" stop-color="#ff6f66"/><stop offset="0.51" stop-color="#ff5a7d"/><stop offset="1" stop-color="#ff4298"/></linearGradient><radialGradient id="radial-gradient" cx="452.75" cy="386.03" r="421.01" gradientTransform="translate(0.06 1.12) scale(0.89 0.92)" gradientUnits="userSpaceOnUse"><stop offset="0" stop-color="#fbbf24"/><stop offset="0.2" stop-color="#fbbc27"/><stop offset="0.37" stop-color="#f9b130"/><stop offset="0.53" stop-color="#f89f40"/><stop offset="0.69" stop-color="#f58555"/><stop offset="0.84" stop-color="#f16571"/><stop offset="0.99" stop-color="#ed3d93"/><stop offset="1" stop-color="#ed3b95"/></radialGradient><linearGradient id="Degradado_sin_nombre_10" x1="432.54" y1="298.81" x2="238.64" y2="504.82" gradientUnits="userSpaceOnUse"><stop offset="0" stop-color="#ffbe0c"/><stop offset="0.46" stop-color="#ffa923"/><stop offset="1" stop-color="#ff8b44"/></linearGradient><linearGradient id="Degradado_sin_nombre_8-2" x1="234.92" y1="306.36" x2="355.19" y2="447.54" xlink:href="#Degradado_sin_nombre_8"/><linearGradient id="Degradado_sin_nombre_9" x1="308.23" y1="528.54" x2="407.75" y2="498.92" gradientUnits="userSpaceOnUse"><stop offset="0" stop-color="#ff4298"/><stop offset="0.24" stop-color="#e83995"/><stop offset="0.73" stop-color="#ab218d"/><stop offset="1" stop-color="#891389"/></linearGradient><linearGradient id="Degradado_sin_nombre_8-3" x1="450.13" y1="560.89" x2="359.71" y2="525.51" xlink:href="#Degradado_sin_nombre_8"/><linearGradient id="Degradado_sin_nombre_5" x1="183.1" y1="486.88" x2="314.76" y2="313.81" gradientUnits="userSpaceOnUse"><stop offset="0" stop-color="#9a71ff"/><stop offset="0.52" stop-color="#8d5afe"/><stop offset="1" stop-color="#7e40fd"/></linearGradient><linearGradient id="Degradado_sin_nombre_3" x1="296.93" y1="281.92" x2="339.15" y2="331.05" gradientUnits="userSpaceOnUse"><stop offset="0" stop-color="#581ce0"/><stop offset="0.14" stop-color="#621bdc"/><stop offset="0.37" stop-color="#7d17d2"/><stop offset="0.66" stop-color="#a811c2"/><stop offset="1" stop-color="#e109ac"/></linearGradient><linearGradient id="Degradado_sin_nombre_4" x1="316.44" y1="520.23" x2="324.52" y2="473.99" gradientUnits="userSpaceOnUse"><stop offset="0" stop-color="#581ce0"/><stop offset="0.16" stop-color="#5c1bde"/><stop offset="0.34" stop-color="#691ada"/><stop offset="0.51" stop-color="#7e17d2"/><stop offset="0.69" stop-color="#9b13c7"/><stop offset="0.87" stop-color="#c00eb8"/><stop offset="1" stop-color="#e109ac"/></linearGradient></defs><title>eventBigSale</title><g class="cls-1"><g id="Layer_1" data-name="Layer 1"><rect class="cls-2" x="656" width="710" height="709.54"/><path class="cls-3" d="M804,709.54.5,710V.46L685.85,0Z"/><path class="cls-4" d="M91,233.31l76.79,40.81L87.28,258.49Z"/><path class="cls-4" d="M117.56,184.09l51.33,88.49L85,198.52Z"/><path class="cls-4" d="M170.81,591.26l26.4-35-14.14,38.86Z"/><path class="cls-4" d="M148.4,574.12l48.14-18.59L153,591.5Z"/><path class="cls-4" d="M585.47,263.08,534.8,312.37,566.89,254Z"/><path class="cls-4" d="M616.95,295.91,535.7,313.64l78.19-46.54Z"/><path class="cls-5" d="M312.88,247.63,507.23,208.7a27.54,27.54,0,0,1,31.5,35.82L475.27,432.29,411.81,620.07A27.54,27.54,0,0,1,365,629.44L234.15,480.59,103.26,331.74a27.54,27.54,0,0,1,15.27-45.19Z"/><path class="cls-6" d="M428.66,305.56l169,103.59a27.54,27.54,0,0,1-1.26,47.68L422.18,551.39,248,645.93A27.54,27.54,0,0,1,207.31,621l5.22-198.14,5.22-198.14A27.54,27.54,0,0,1,259.67,202Z"/><circle class="cls-7" cx="448.49" cy="555.27" r="39.8"/><circle class="cls-8" cx="272.33" cy="312.29" r="75.31"/><path class="cls-9" d="M160.16,290.53l362.39,29.61a41.81,41.81,0,0,1,36.7,53.49L514.36,525.91a41.81,41.81,0,0,1-51.25,28.47l-303-83.78a41.81,41.81,0,0,1-30.21-34.16L115.4,338.34A41.81,41.81,0,0,1,160.16,290.53Z"/><path class="cls-10" d="M474.28,552.55a38.55,38.55,0,0,1-10.27-1.4l-303-83.78a38.47,38.47,0,0,1-27.78-31.42l-14.55-98.1a38.45,38.45,0,0,1,37.95-44.09c1.06,0,2.15,0,3.21.13l362.39,29.61A38.45,38.45,0,0,1,556,372.68L511.14,525A38.65,38.65,0,0,1,474.28,552.55Z"/><line class="cls-11" x1="224.73" y1="546.68" x2="306.69" y2="546.68"/><line class="cls-12" x1="364.16" y1="265" x2="504.45" y2="265"/><circle class="cls-13" cx="513.04" cy="293.75" r="10.29"/><circle class="cls-14" cx="189.72" cy="531.29" r="10.29"/><path class="cls-15" d="M253.23,315.58l177.48-24.37c57.18-7.85,105.67,41.8,96.46,98.77l-17,105.34-379.92-5.79h0C113.19,406.89,169.63,327.06,253.23,315.58Z"/><polygon class="cls-16" points="510.16 495.32 337.96 546.68 337.96 492.7 510.16 495.32"/><path class="cls-17" d="M338,546.68l98,13c13.9,1.85,20.86-16.27,9.29-24.2L424.06,521Z"/><path class="cls-18" d="M305.32,515.47l-62.8-.66a105.19,105.19,0,0,1-104-100.11l-.88-18.24a101.11,101.11,0,0,1,85.62-104.81l75.08-11.55Z"/><polygon class="cls-19" points="298.36 280.1 337.96 303.95 299.26 310.35 298.36 280.1"/><polygon class="cls-20" points="305.32 515.47 304.63 492.19 337.96 492.7 305.32 515.47"/><g class="cls-21"><text class="cls-22" transform="translate(339.67 409.49) rotate(-3.66) scale(1.01 1)">70%<tspan class="cls-23"><tspan x="9.7" y="37.03">DIS</tspan><tspan class="cls-24" x="53.16" y="37.03">C</tspan><tspan x="70.15" y="37.03">OUNT</tspan></tspan></text></g><text class="cls-25" transform="translate(337.25 407.08) rotate(-3.66) scale(1.01 1)">70%<tspan class="cls-23"><tspan x="9.7" y="37.03">DIS</tspan><tspan class="cls-24" x="53.16" y="37.03">C</tspan><tspan x="70.15" y="37.03">OUNT</tspan></tspan></text><g class="cls-21"><text class="cls-26" transform="matrix(1.01, -0.05, 0.05, 1, 169.15, 398.03)">BIG<tspan class="cls-27"><tspan x="-1.59" y="45.9">SALE</tspan></tspan></text></g><text class="cls-28" transform="matrix(1.01, -0.05, 0.05, 1, 166.74, 395.61)">BIG<tspan class="cls-29"><tspan x="-1.59" y="45.9">SALE</tspan></tspan></text><line class="cls-30" x1="454.77" y1="477.53" x2="536.73" y2="477.53"/><path class="cls-31" d="M187.29,643.82l-19.43,31.89a4.76,4.76,0,0,1-8.77-1.81l-9.32-66.29a4.76,4.76,0,0,1,4-5.37l23.45-3.3a4.76,4.76,0,0,1,5.37,4l5.3,37.7A4.76,4.76,0,0,1,187.29,643.82Z"/><path class="cls-32" d="M373.32,616.33l-213.2,30a4.86,4.86,0,0,1-5.49-4.13l-4.85-34.47a4.86,4.86,0,0,1,4.13-5.49l238.27-33.51a4.86,4.86,0,0,1,5,7.09l-20.22,38A4.86,4.86,0,0,1,373.32,616.33Z"/><path class="cls-33" d="M174.07,630.14a4.17,4.17,0,0,1-2.35-3.35,6.85,6.85,0,0,1,0-.7l4.57-.64a1.93,1.93,0,0,0,.68,1.48,2.2,2.2,0,0,0,1.72.33,2.59,2.59,0,0,0,1.52-.66,1.47,1.47,0,0,0,.4-1.31,1.58,1.58,0,0,0-.92-1.23,12.77,12.77,0,0,0-2.44-.84,19.92,19.92,0,0,1-2.59-.83,5.47,5.47,0,0,1-1.84-1.27,4,4,0,0,1-1-2.29,5.23,5.23,0,0,1,.44-3.21,5.75,5.75,0,0,1,2.21-2.36,9.15,9.15,0,0,1,3.55-1.21,8.86,8.86,0,0,1,3.37.12,5,5,0,0,1,2.47,1.36A4.31,4.31,0,0,1,185,616a4.49,4.49,0,0,1,.05.57l-4.68.66a1.4,1.4,0,0,0,0-.31,1.51,1.51,0,0,0-.67-1.1,2,2,0,0,0-1.44-.26,2.4,2.4,0,0,0-1.44.66,1.48,1.48,0,0,0-.41,1.3,1.58,1.58,0,0,0,.9,1.2,13.62,13.62,0,0,0,2.41.91,24,24,0,0,1,2.66.94,5.65,5.65,0,0,1,1.88,1.35,4.17,4.17,0,0,1,1,2.33,5,5,0,0,1-.45,3,5.63,5.63,0,0,1-2.16,2.31,9.21,9.21,0,0,1-3.63,1.23A8.28,8.28,0,0,1,174.07,630.14Z"/><path class="cls-33" d="M201.19,617.89a6.92,6.92,0,0,1-2.29,2.46,8.75,8.75,0,0,1-3.73,1.34l-2.72.38-.25,6.64-4.39.62.65-18.49,7.12-1a6.42,6.42,0,0,1,4.44.65,4.28,4.28,0,0,1,1.91,3.18,6.41,6.41,0,0,1,.06,1.2A6.66,6.66,0,0,1,201.19,617.89Zm-3.67-2.41a5.54,5.54,0,0,0,0-.6,1.6,1.6,0,0,0-.71-1.2,2.45,2.45,0,0,0-1.67-.22l-2.39.34-.15,4.74,2.36-.33A2.65,2.65,0,0,0,197.52,615.49Z"/><path class="cls-33" d="M208.76,611.52l-.11,3.84,5.89-.83-.12,3.4-5.89.83-.15,4.14L215,622l-.13,3.56-11.05,1.55.65-18.49L215.54,607l-.13,3.56Z"/><path class="cls-33" d="M218.67,610.9a10.86,10.86,0,0,1,3.33-3.8,10.58,10.58,0,0,1,4.72-1.86,7.83,7.83,0,0,1,5.44,1,6.62,6.62,0,0,1,2.9,4.31l-4.83.68a3,3,0,0,0-1.46-1.51,3.93,3.93,0,0,0-2.25-.27,5,5,0,0,0-3.32,1.9,6.57,6.57,0,0,0-1.38,4,7.33,7.33,0,0,0,0,1.28,4,4,0,0,0,1.4,2.71,3.65,3.65,0,0,0,2.9.67,4.91,4.91,0,0,0,2.27-.92,5.23,5.23,0,0,0,1.6-2l4.83-.68a10.39,10.39,0,0,1-3.23,5.16,10.55,10.55,0,0,1-5.57,2.5,8.68,8.68,0,0,1-4.16-.33,6.38,6.38,0,0,1-3-2.17,7.75,7.75,0,0,1-1.46-3.7,10,10,0,0,1-.09-1.93A11.31,11.31,0,0,1,218.67,610.9Z"/><path class="cls-33" d="M242.37,603.25l-.65,18.49-4.39.62.65-18.49Z"/><path class="cls-33" d="M256.26,616.45l-6.73.95-1.2,3.42-4.6.65,7.18-19.41,5.09-.72,5.88,17.57-4.65.65Zm-1-3.27-2-6.53-2.5,7.17Z"/><path class="cls-33" d="M268.37,614.59l5.76-.81L274,617.2l-10.15,1.43.65-18.49,4.39-.62Z"/><path class="cls-33" d="M286.5,614.66a6.73,6.73,0,0,1-3.06-2.3,8.13,8.13,0,0,1-1.51-3.82,11.63,11.63,0,0,1,.57-5.83,9.89,9.89,0,0,1,3.25-4.4,11,11,0,0,1,5.32-2.16,8.54,8.54,0,0,1,4.19.37,6.65,6.65,0,0,1,3.07,2.27,8,8,0,0,1,1.5,3.79,11.79,11.79,0,0,1-.57,5.86,9.92,9.92,0,0,1-3.25,4.44,11.06,11.06,0,0,1-5.35,2.18A8.31,8.31,0,0,1,286.5,614.66Zm7.11-5.06a5.87,5.87,0,0,0,1.66-2.63,7.39,7.39,0,0,0,.26-3.3,4,4,0,0,0-1.44-2.76,3.87,3.87,0,0,0-3-.65,5.29,5.29,0,0,0-2.87,1.29,5.87,5.87,0,0,0-1.68,2.61,7.28,7.28,0,0,0-.26,3.3,4.07,4.07,0,0,0,1.44,2.77,3.88,3.88,0,0,0,3.05.66A5.22,5.22,0,0,0,293.61,609.6Z"/><path class="cls-33" d="M314.64,593.09l-.13,3.56-7.35,1-.12,4,5.5-.77-.15,3.43-5.5.77-.25,7.53-4.39.62.65-18.49Z"/><path class="cls-33" d="M328.7,591.11l-.13,3.56-7.35,1-.12,4,5.5-.77-.15,3.43-5.5.77-.25,7.53-4.39.62.65-18.49Z"/><path class="cls-33" d="M335.27,593.73l-.11,3.84,5.89-.83-.12,3.4L335,601l-.15,4.14,6.66-.94-.13,3.56-11.05,1.55.65-18.49,11.05-1.55-.13,3.56Z"/><path class="cls-33" d="M356.73,588.47a4.21,4.21,0,0,1,1.93,3.1,5.72,5.72,0,0,1,.05,1.12,6.43,6.43,0,0,1-1.12,3.43,6.93,6.93,0,0,1-3.08,2.48l3.91,6.74-5,.7-3.5-6.45-1.05.15-.25,7-4.39.62.65-18.49,7.38-1A6.39,6.39,0,0,1,356.73,588.47Zm-2.51,4.48a1.6,1.6,0,0,0-.71-1.2,2.36,2.36,0,0,0-1.62-.23l-2.72.38-.16,4.63,2.72-.38a2.92,2.92,0,0,0,1.83-.86,2.8,2.8,0,0,0,.68-1.8Q354.24,593.08,354.22,592.95Z"/><rect class="cls-32" x="317.51" y="156.44" width="296.1" height="51.53" rx="13.5" ry="13.5" transform="translate(-27.32 98.43) rotate(-11.73)"/><path class="cls-33" d="M345.42,212.44q2.53-3.16,4-5.14a20.37,20.37,0,0,0,2.27-4,6.27,6.27,0,0,0,.5-3.71,3.11,3.11,0,0,0-1-1.87,2.51,2.51,0,0,0-3.59.92,4.18,4.18,0,0,0-.15,2.65l-5.14,1.07a9,9,0,0,1,.22-4.66,6.75,6.75,0,0,1,2.29-3.2,9.14,9.14,0,0,1,3.73-1.65,7.71,7.71,0,0,1,6,.74,6.87,6.87,0,0,1,2.91,4.56,9.92,9.92,0,0,1-1,6.66,34.21,34.21,0,0,1-4.64,6.76l8.41-1.75.9,4.33-15.64,3.25-.82-4Q345.5,212.36,345.42,212.44Z"/><path class="cls-33" d="M359.22,196.28l-1-5,8.63-1.79,4.72,22.74L366,213.43l-3.69-17.79Z"/><path class="cls-33" d="M393,194.12l.92,4.42-13.71,2.84-.92-4.42Z"/><path class="cls-33" d="M406.19,199.82q2.53-3.16,4-5.14a20.37,20.37,0,0,0,2.27-4,6.27,6.27,0,0,0,.5-3.71,3.11,3.11,0,0,0-1-1.87,2.51,2.51,0,0,0-3.59.92,4.18,4.18,0,0,0-.15,2.65L403,189.73a9,9,0,0,1,.22-4.66,6.75,6.75,0,0,1,2.29-3.2,9.14,9.14,0,0,1,3.73-1.65,7.71,7.71,0,0,1,6,.74,6.87,6.87,0,0,1,2.91,4.56,9.92,9.92,0,0,1-1,6.66,34.21,34.21,0,0,1-4.64,6.76l8.41-1.75.9,4.33-15.64,3.25-.82-4Q406.27,199.74,406.19,199.82Z"/><path class="cls-33" d="M421.51,184.07a5.76,5.76,0,0,1,.24-3.25,6.13,6.13,0,0,1,2.19-2.76,10.53,10.53,0,0,1,4.19-1.73,10.43,10.43,0,0,1,4.52-.08,6.15,6.15,0,0,1,3.09,1.67,5.77,5.77,0,0,1,1.51,2.89,5.44,5.44,0,0,1-.19,3.09,5.75,5.75,0,0,1-1.73,2.41,6.27,6.27,0,0,1,3,1.69,6.17,6.17,0,0,1,1.59,3.13,6.63,6.63,0,0,1-.33,4,7.24,7.24,0,0,1-2.53,3.08,11.41,11.41,0,0,1-8.5,1.77,7.24,7.24,0,0,1-3.54-1.81,6.63,6.63,0,0,1-1.91-3.58,6.22,6.22,0,0,1,.21-3.54,6.08,6.08,0,0,1,2.1-2.73A5.28,5.28,0,0,1,421.51,184.07Zm7.17,6.85a2.83,2.83,0,0,0-.45,2.38,2.89,2.89,0,0,0,1.33,2,3.39,3.39,0,0,0,2.56.35,3.28,3.28,0,0,0,2.18-1.33,2.94,2.94,0,0,0,.41-2.33,2.87,2.87,0,0,0-1.34-2,3.38,3.38,0,0,0-2.49-.33A3.53,3.53,0,0,0,428.68,190.92Zm2.41-10.05a2.75,2.75,0,0,0-2.09-.3,2.55,2.55,0,0,0-2.12,3.27,2.55,2.55,0,0,0,1.15,1.76,2.77,2.77,0,0,0,2.08.3,2.73,2.73,0,0,0,1.78-1.12,2.6,2.6,0,0,0,.35-2.09A2.67,2.67,0,0,0,431.09,180.86Z"/><path class="cls-33" d="M471.13,191.61l-5.33,1.11-11.71-11.64,2.8,13.49-5.33,1.11L447,173.8l5.33-1.11,11.72,11.7-2.81-13.55,5.33-1.11Z"/><path class="cls-33" d="M478.13,189.28a8.15,8.15,0,0,1-3.86-2.45,10.3,10.3,0,0,1-1.95-9.46,8.2,8.2,0,0,1,2.59-3.8,10.51,10.51,0,0,1,9.22-1.91,8.21,8.21,0,0,1,3.89,2.46,9.43,9.43,0,0,1,2.16,4.47,9.34,9.34,0,0,1-.22,5,8.28,8.28,0,0,1-2.62,3.81,10,10,0,0,1-4.4,2.05A9.79,9.79,0,0,1,478.13,189.28Zm6.23-6.13a4.55,4.55,0,0,0,.41-3.43,4.64,4.64,0,0,0-1.71-3,3.62,3.62,0,0,0-5.16,1.05,4.67,4.67,0,0,0-.36,3.44,4.73,4.73,0,0,0,1.68,3,3.34,3.34,0,0,0,2.77.59A3.54,3.54,0,0,0,484.36,183.14Z"/><path class="cls-33" d="M501.61,180.08l1.2-13.18,5.67-1.18-2.56,18.66-6.57,1.36-9.78-16.1,5.7-1.18Z"/><path class="cls-33" d="M520.13,176.17q2.53-3.16,4-5.14a20.37,20.37,0,0,0,2.27-4,6.27,6.27,0,0,0,.5-3.71,3.11,3.11,0,0,0-1-1.87,2.51,2.51,0,0,0-3.59.92,4.18,4.18,0,0,0-.15,2.65L517,166.08a9,9,0,0,1,.22-4.66,6.75,6.75,0,0,1,2.29-3.2,9.14,9.14,0,0,1,3.73-1.65,7.71,7.71,0,0,1,6,.74,6.87,6.87,0,0,1,2.91,4.56,9.92,9.92,0,0,1-1,6.66,34.21,34.21,0,0,1-4.64,6.76l8.41-1.75.9,4.33-15.64,3.25-.82-4Q520.21,176.09,520.13,176.17Z"/><path class="cls-33" d="M536.08,157.14q1.43-3.51,6-4.47t7.32,1.7q2.71,2.65,3.82,8t-.31,8.93q-1.43,3.51-6,4.47t-7.32-1.7q-2.71-2.65-3.84-8.07T536.08,157.14Zm10.26,1.62a3.28,3.28,0,0,0-5.67,1.18,13.72,13.72,0,0,0,.32,5,20.76,20.76,0,0,0,1,3.45,4.57,4.57,0,0,0,1.48,2,3.48,3.48,0,0,0,4.52-.94,4.58,4.58,0,0,0,.55-2.45,20.8,20.8,0,0,0-.48-3.56A13.73,13.73,0,0,0,546.35,158.76Z"/><path class="cls-33" d="M558.23,168.27q2.53-3.16,4-5.14a20.37,20.37,0,0,0,2.27-4,6.27,6.27,0,0,0,.5-3.71,3.11,3.11,0,0,0-1-1.87,2.51,2.51,0,0,0-3.59.92,4.18,4.18,0,0,0-.15,2.65l-5.14,1.07a9,9,0,0,1,.22-4.66,6.75,6.75,0,0,1,2.29-3.2,9.14,9.14,0,0,1,3.73-1.65,7.71,7.71,0,0,1,6,.74A6.87,6.87,0,0,1,570.2,154a9.92,9.92,0,0,1-1,6.66,34.21,34.21,0,0,1-4.64,6.76l8.41-1.75.9,4.33-15.64,3.25-.82-4Q558.31,168.18,558.23,168.27Z"/><path class="cls-33" d="M574.2,147.83a8.32,8.32,0,0,1,5.2-3,9.28,9.28,0,0,1,4.17,0,5.86,5.86,0,0,1,4.49,4.66,5.26,5.26,0,0,1-2.37,5.82l0,.12a5.74,5.74,0,0,1,3.21,1.38,5.83,5.83,0,0,1,1.76,3.31,6.64,6.64,0,0,1-.18,3.6,6.19,6.19,0,0,1-2.1,2.86,10.62,10.62,0,0,1-10.21,1.08,7.25,7.25,0,0,1-3.5-5.06l5.17-1.07a3.21,3.21,0,0,0,1.23,2,2.91,2.91,0,0,0,2.35.34,2.54,2.54,0,0,0,1.74-1.09,2.63,2.63,0,0,0,.28-2,2.52,2.52,0,0,0-1.4-2,5.48,5.48,0,0,0-3.18,0l-1,.21-.9-4.33,1-.21a5.39,5.39,0,0,0,2.46-1.08,2.08,2.08,0,0,0,.58-2.15,2.41,2.41,0,0,0-1-1.62,2.37,2.37,0,0,0-1.84-.27,2.17,2.17,0,0,0-1.61,1.08,3.28,3.28,0,0,0-.3,1.91l-5.2,1.08A7,7,0,0,1,574.2,147.83Z"/></g></g></svg>