<svg id="Layer_1" data-name="Layer 1" xmlns="http://www.w3.org/2000/svg" viewBox="0 0 190 158"><defs><style>.cls-1{fill:#fff424;}.cls-1,.cls-2,.cls-3,.cls-4,.cls-5{stroke:#fff;stroke-miterlimit:10;}.cls-2{fill:#2064a8;}.cls-3{fill:#8623cc;}.cls-4{fill:#d31c67;}.cls-5{fill:#ff8b00;}</style></defs><title>main_logo</title><path class="cls-1" d="M160.39,110.78c-.5,2.13-3.07,3.69-6.09,3.69H64.61c-3,0-5.6-1.56-6.09-3.69L43.88,48c-.63-2.69,2.28-5.15,6.09-5.15h119c3.82,0,6.72,2.45,6.09,5.15l-3.72,15.95h12.26L188.45,42c.76-3.4-2.74-6.5-7.34-6.5H37.81c-4.6,0-8.1,3.1-7.34,6.5l17.63,79.3c.6,2.69,3.7,4.66,7.34,4.66h108c3.64,0,6.74-2,7.34-4.66l5.28-23.76H163.48Z"/><ellipse class="cls-1" cx="72.72" cy="145.96" rx="11.14" ry="11.52"/><ellipse class="cls-1" cx="148.19" cy="145.96" rx="11.14" ry="11.52"/><path class="cls-1" d="M29.69,35h0a4.22,4.22,0,0,1-6.06-.48L3.13,9.72a4.48,4.48,0,0,1,.49-6.15h0a4.23,4.23,0,0,1,6.09.48L30.17,28.86A4.48,4.48,0,0,1,29.69,35Z"/><circle class="cls-2" cx="71.3" cy="94.1" r="10.89"/><circle class="cls-3" cx="101.97" cy="70.77" r="23.33"/><circle class="cls-4" cx="141.76" cy="91.89" r="17.04"/><circle class="cls-5" cx="148.19" cy="58.28" r="10.83"/></svg>